<svg width="270" height="270" viewBox="0 0 270 270" fill="none" xmlns="http://www.w3.org/2000/svg">
<rect width="270" height="270" fill="#999999"/>
<path d="M37.0748 124.453L37.0733 124.458C31.9696 140.023 30.6538 159.467 33.5886 173.632L33.5905 173.641L33.5924 173.65C35.7504 184.201 41.1955 195.761 48.5065 205.141C51.3662 208.772 58.0618 215.533 62.2084 218.938C77.8167 231.72 96.2965 239.568 118.986 242.803C122.606 243.313 128.899 243.579 135.528 243.531C142.162 243.482 148.454 243.124 152.07 242.557C156.095 241.926 165.134 240.386 175.324 237.261C185.621 234.103 196.508 229.499 204.588 223.023C212.902 216.358 220.14 207.959 225.681 199.78C231.278 191.518 234.828 183.948 236.13 179.113C238.888 168.871 238.253 154.755 235.957 139.53C233.63 124.267 228.126 112.304 219.865 102.456C211.539 92.5316 200.128 84.4157 185.519 77.3407C172.73 71.1469 164.683 70.0144 149.474 68.1307C129.049 65.601 117.475 65.1461 98.6846 70.7422C87.029 74.2136 78.1025 77.5368 70.3679 82.1864C62.7441 86.7694 55.9862 92.8222 49.0321 102.092C42.9606 110.184 39.7183 116.372 37.0748 124.453Z" fill="#E74C3C" stroke="#C0392B" stroke-width="15"/>
<path fill-rule="evenodd" clip-rule="evenodd" d="M125.069 26.4209C126.804 22.9514 129.261 20.7524 132.731 19.6773C134.563 19.1398 142.37 19.1887 144.394 19.7262C148.876 20.9967 152.924 26.1766 153.021 30.8189C153.069 32.1383 152.683 36.976 152.201 41.5695C151.478 48.5085 151.478 50.0722 151.96 50.7075C153.502 52.5644 166.225 51.245 174.611 48.3131C178.9 46.8471 180.201 46.7982 182.225 48.0687C184.105 49.1927 185.753 50.5426 185.753 53.557C185.753 56.5715 184.992 60.9094 184.394 62.5821C184.079 63.4647 183.334 64.7322 183.334 64.7322C180.78 69.8143 176.49 73.4793 170.274 75.776L166.852 77.0954L168.683 78.1705C169.695 78.8057 172.298 79.783 174.466 80.3694C177.31 81.1024 178.804 81.8354 179.719 82.7639C181.262 84.3765 181.792 87.4551 180.924 89.6052C179.864 92.1951 173.406 96.251 168.057 97.6682C159.478 99.9649 149.069 96.5442 140.828 88.7256L138.563 86.5755L135.671 89.1654C127.526 96.642 117.358 99.8672 108.972 97.6682C103.912 96.3488 97.5504 92.4883 96.2974 89.9961C95.1408 87.6994 95.4299 84.9629 97.0685 83.106C98.2251 81.7866 99.2372 81.249 102.514 80.3694C104.683 79.783 107.334 78.8057 108.346 78.1705L110.177 77.0954L106.755 75.776C100.538 73.4793 96.2492 69.8143 93.695 64.7322C93.695 64.7322 92.9779 63.454 92.6348 62.5821C91.5808 59.9044 91.4594 56.0381 91.7673 53.5906C92.0752 51.1431 92.9239 49.1927 94.8034 48.0687C96.8275 46.7982 98.1287 46.8471 102.418 48.3131C110.803 51.245 123.526 52.5644 125.069 50.7075C125.551 50.0722 125.551 48.5085 124.828 41.5695C123.719 31.2098 123.767 29.0597 125.069 26.4209ZM145.02 40.7388C146.225 30.4279 146.033 28.7176 143.334 27.3005C141.502 26.3232 135.382 26.372 133.599 27.3494C131.045 28.7176 130.804 30.5257 132.008 40.7388C133.213 51.0496 132.924 53.2486 129.888 56.1317C127.719 58.2329 125.888 58.7216 120.153 58.7705C114.514 58.8193 109.069 57.9886 102.9 56.1806L98.8998 55.0078L99.0926 57.2556C99.7673 64.4879 105.647 69.0813 116.057 70.5473C117.599 70.7916 119.285 71.3292 119.767 71.8178C121.936 73.7725 120.105 78.3171 115.719 81.982C113.55 83.7901 106.9 87.1619 105.55 87.1619C103.96 87.1619 104.876 88.237 107.575 89.5075C109.936 90.6314 110.9 90.8269 114.659 90.778C121.406 90.7291 125.936 88.4324 133.358 81.3468C135.816 79.0012 137.936 77.3886 138.514 77.3886C139.093 77.3886 141.213 79.0012 143.671 81.3468C151.093 88.4324 155.623 90.7291 162.37 90.778C166.129 90.8269 167.093 90.6314 169.503 89.5075C172.153 88.237 173.069 87.1619 171.478 87.1619C170.129 87.1619 163.478 83.7901 161.31 81.982C158.611 79.7342 156.201 76.1181 156.201 74.3589C156.201 72.2088 157.695 71.036 160.972 70.5962C171.623 69.0324 178.033 63.7549 178.033 56.5715L178.033 55.0078L174.081 56.1806C167.96 57.9886 162.515 58.8193 156.876 58.7705C151.141 58.7216 149.31 58.2329 147.141 56.1317C144.105 53.2486 143.816 51.0496 145.02 40.7388Z" fill="#16A085"/>
<path d="M143.334 27.3005C146.033 28.7176 146.225 30.4279 145.02 40.7388C143.816 51.0496 144.105 53.2486 147.141 56.1317C149.31 58.2329 151.141 58.7216 156.876 58.7705C162.515 58.8193 167.96 57.9886 174.081 56.1806L178.033 55.0078L178.033 56.5715C178.033 63.7549 171.623 69.0324 160.972 70.5962C157.695 71.036 156.201 72.2088 156.201 74.3589C156.201 76.1181 158.611 79.7342 161.31 81.982C163.478 83.7901 170.129 87.1619 171.478 87.1619C173.069 87.1619 172.153 88.237 169.503 89.5075C167.093 90.6314 166.129 90.8269 162.37 90.778C155.623 90.7291 151.093 88.4324 143.671 81.3468C141.213 79.0012 139.093 77.3886 138.514 77.3886C137.936 77.3886 135.816 79.0012 133.358 81.3468C125.936 88.4324 121.406 90.7291 114.659 90.778C110.9 90.8269 109.936 90.6314 107.575 89.5075C104.876 88.237 103.96 87.1619 105.55 87.1619C106.9 87.1619 113.55 83.7901 115.719 81.982C120.105 78.3171 121.936 73.7725 119.767 71.8178C119.285 71.3292 117.599 70.7916 116.057 70.5473C105.647 69.0813 99.7673 64.4879 99.0926 57.2556L98.8998 55.0078L102.9 56.1806C109.069 57.9886 114.514 58.8193 120.153 58.7705C125.888 58.7216 127.719 58.2329 129.888 56.1317C132.924 53.2486 133.213 51.0496 132.008 40.7388C130.804 30.5257 131.045 28.7176 133.599 27.3494C135.382 26.372 141.502 26.3232 143.334 27.3005Z" fill="#1ABC9C"/>
<path fill-rule="evenodd" clip-rule="evenodd" d="M169.15 132.412C170.648 132.151 171.657 132.021 172.178 132.021C174.847 132.021 176.182 133.616 176.182 136.806C176.182 139.085 176.214 141.298 176.279 143.447C176.344 145.595 176.442 147.581 176.572 149.404C176.963 160.667 177.842 171.865 179.209 182.998C180.576 194.065 182.171 205.198 183.994 216.396C184.32 218.479 185.003 220.042 186.045 221.084C187.087 222.19 188.454 222.744 190.146 222.744C191.253 222.744 192.393 222.548 193.564 222.158L197.959 220.791C201.995 219.293 204.014 216.754 204.014 213.173V212.197C204.014 211.871 203.949 211.546 203.818 211.22C202.386 201.845 201.051 192.568 199.814 183.388C198.643 174.209 197.764 164.931 197.178 155.556C196.982 152.822 196.755 150.088 196.494 147.353C196.299 144.619 196.201 141.884 196.201 139.15V135.537C196.266 134.235 196.396 132.965 196.592 131.728C196.787 130.426 197.21 129.352 197.861 128.505C198.512 127.594 199.489 126.943 200.791 126.552C203.916 125.641 207.594 124.827 211.826 124.111C216.058 123.33 220.029 122.679 223.74 122.158C225.173 122.028 226.344 121.67 227.256 121.084C228.167 120.498 228.883 119.749 229.404 118.838C229.925 117.926 230.283 116.917 230.479 115.81C230.674 114.638 230.771 113.434 230.771 112.197C230.771 109.788 230.218 107.933 229.111 106.63C228.07 105.263 226.507 104.58 224.424 104.58C222.731 104.58 220.843 104.71 218.76 104.97C216.742 105.231 214.626 105.556 212.412 105.947C210.264 106.338 208.115 106.793 205.967 107.314C203.818 107.77 201.833 108.258 200.01 108.779C198.317 109.3 196.787 109.723 195.42 110.048C194.053 110.309 192.523 110.602 190.83 110.927C183.148 112.36 175.531 113.727 167.979 115.029C160.426 116.331 152.842 117.568 145.225 118.74C143.727 119 142.49 119.489 141.514 120.205C140.537 120.921 139.756 121.8 139.17 122.841C139.019 123.093 138.877 123.341 138.745 123.584C137.399 122.455 135.967 121.423 134.482 120.498C130.055 117.633 124.782 115.42 118.662 113.857C112.542 112.229 105.869 111.416 98.6426 111.416C88.5514 111.416 79.3717 112.295 71.1035 114.052C62.8353 115.81 55.7715 118.284 49.9121 121.474C44.0527 124.599 39.528 128.408 36.3379 132.9C33.0827 137.327 31.4551 142.275 31.4551 147.744C31.4551 151.65 32.334 154.645 34.0918 156.728C35.8496 158.746 37.9655 159.755 40.4395 159.755C43.9551 159.755 46.5592 159.202 48.252 158.095C49.9447 156.989 51.084 155.621 51.6699 153.994C52.321 152.366 52.6139 150.608 52.5488 148.72C52.5488 146.767 52.5814 144.977 52.6465 143.349C52.7767 141.722 53.1348 140.354 53.7207 139.248C54.3717 138.141 55.6738 137.588 57.627 137.588C59.7103 137.588 61.2077 138.759 62.1191 141.103C63.0306 143.447 63.7467 147.125 64.2676 152.138C64.5931 155.654 64.9186 159.593 65.2441 163.955C65.6348 168.252 66.0254 172.711 66.416 177.334C66.8066 181.956 67.1647 186.611 67.4902 191.298C67.8158 195.986 68.1087 200.413 68.3691 204.58C68.6296 208.746 68.8249 212.555 68.9551 216.005C69.1504 219.456 69.248 222.255 69.248 224.404C69.248 226.487 70.127 228.05 71.8848 229.091C73.6426 230.198 76.084 230.752 79.209 230.752C82.5293 230.752 85.0358 229.97 86.7285 228.408C88.4212 226.845 89.2676 224.241 89.2676 220.595C89.2676 218.577 89.1374 216.266 88.877 213.662C88.6816 211.058 88.4538 208.421 88.1934 205.752C87.998 203.082 87.7702 200.543 87.5098 198.134C87.3145 195.66 87.2168 193.61 87.2168 191.982C87.2168 189.573 88.3561 188.173 90.6348 187.783C98.7728 186.155 106.39 183.909 113.486 181.045C120.583 178.115 126.735 174.697 131.943 170.791C137.217 166.884 141.351 162.588 144.346 157.9C147.34 153.213 148.838 148.297 148.838 143.154C148.838 140.555 148.379 138.08 147.555 135.754C149.005 135.789 150.474 135.679 151.865 135.439C153.753 135.114 155.771 134.755 157.92 134.365C160.068 133.909 162.119 133.519 164.072 133.193C166.025 132.867 167.718 132.607 169.15 132.412ZM147.555 135.754C140.614 135.585 134.117 132.086 138.745 123.584C142.673 126.88 145.875 131.007 147.555 135.754ZM125.791 139.638C127.679 141.657 128.623 143.772 128.623 145.986C128.623 147.744 127.907 149.599 126.475 151.552C125.107 153.44 123.252 155.328 120.908 157.216C118.63 159.039 116.025 160.797 113.096 162.49C110.231 164.117 107.269 165.582 104.209 166.884C101.214 168.121 98.2845 169.13 95.4199 169.912C92.5553 170.628 90.0163 170.986 87.8027 170.986C87.0215 170.986 86.4355 170.66 86.0449 170.009C85.7194 169.358 85.459 168.024 85.2637 166.005C84.873 163.271 84.4824 160.211 84.0918 156.826C83.7663 153.375 83.4408 150.088 83.1152 146.963C82.7897 143.838 82.5293 141.103 82.334 138.759C82.1387 136.351 82.041 134.821 82.041 134.17C82.041 133.193 82.2038 132.412 82.5293 131.826C82.9199 131.175 83.571 130.654 84.4824 130.263C85.3939 129.873 86.5983 129.612 88.0957 129.482C89.6582 129.287 91.5788 129.189 93.8574 129.189C98.4798 129.189 102.874 129.645 107.041 130.556C111.273 131.468 114.984 132.705 118.174 134.267C121.364 135.83 123.903 137.62 125.791 139.638Z" fill="#ECF0F1"/>
<path d="M147.555 135.754C140.614 135.585 134.117 132.086 138.745 123.584C142.673 126.88 145.875 131.007 147.555 135.754Z" fill="#ECF0F1"/>
</svg>
