<svg width="270" height="270" viewBox="0 0 270 270" fill="none" xmlns="http://www.w3.org/2000/svg">
<g clip-path="url(#clip0_386_482)">
<rect x="30" y="60.963" width="210" height="190" rx="50" fill="#E74C3C" stroke="#C0392B" stroke-width="15"/>
<path d="M192.579 108.463L189.888 166.818C187.476 166.447 183.611 165.983 178.292 165.426C175.014 165.24 169.694 165.055 162.334 164.869C161.963 168.518 161.314 177.332 160.386 191.31C159.706 204.855 158.593 224.739 157.046 250.963H112.144C111.649 238.47 110.722 218.833 109.361 192.052C108.742 182.775 108.093 173.714 107.413 164.869L92.7544 165.426L79.4878 166.818L77.1685 108.463H192.579Z" fill="#F9D5D2"/>
<path d="M192.579 108.463L207.563 109.154L208.286 93.4631H192.579V108.463ZM189.888 166.818L187.607 181.643L204.104 184.181L204.872 167.508L189.888 166.818ZM178.292 165.426L179.853 150.507L179.497 150.47L179.139 150.45L178.292 165.426ZM162.334 164.869L162.713 149.874L148.818 149.524L147.411 163.352L162.334 164.869ZM160.386 191.31L145.419 190.316L145.411 190.437L145.405 190.557L160.386 191.31ZM157.046 250.963V265.963H171.188L172.02 251.846L157.046 250.963ZM112.144 250.963L97.1558 251.557L97.7263 265.963H112.144V250.963ZM109.361 192.052L124.342 191.291L124.336 191.172L124.328 191.054L109.361 192.052ZM107.413 164.869L122.368 163.719L121.262 149.333L106.843 149.88L107.413 164.869ZM92.7544 165.426L92.1852 150.437L91.6862 150.456L91.1896 150.508L92.7544 165.426ZM79.4878 166.818L64.4996 167.413L65.1352 183.405L81.0526 181.736L79.4878 166.818ZM77.1685 108.463V93.4631H61.5604L62.1803 109.059L77.1685 108.463ZM177.595 107.772L174.904 166.127L204.872 167.508L207.563 109.154L177.595 107.772ZM192.169 151.992C189.373 151.562 185.199 151.067 179.853 150.507L176.73 180.345C182.022 180.898 185.58 181.331 187.607 181.643L192.169 151.992ZM179.139 150.45C175.608 150.25 170.086 150.06 162.713 149.874L161.956 179.865C169.303 180.05 174.419 180.231 177.444 180.402L179.139 150.45ZM147.411 163.352C147.008 167.32 146.341 176.428 145.419 190.316L175.353 192.303C176.287 178.236 176.919 169.717 177.258 166.387L147.411 163.352ZM145.405 190.557C144.728 204.035 143.618 223.868 142.072 250.08L172.02 251.846C173.567 225.611 174.684 205.674 175.367 192.062L145.405 190.557ZM157.046 235.963H112.144V265.963H157.046V235.963ZM127.132 250.37C126.634 237.787 125.703 218.079 124.342 191.291L94.3802 192.813C95.7404 219.586 96.6645 239.152 97.1558 251.557L127.132 250.37ZM124.328 191.054C123.706 181.728 123.053 172.617 122.368 163.719L92.4568 166.02C93.133 174.811 93.7788 183.821 94.3941 193.05L124.328 191.054ZM106.843 149.88L92.1852 150.437L93.3236 180.415L107.982 179.859L106.843 149.88ZM91.1896 150.508L77.923 151.899L81.0526 181.736L94.3192 180.344L91.1896 150.508ZM94.476 166.222L92.1566 107.867L62.1803 109.059L64.4996 167.413L94.476 166.222ZM77.1685 123.463H192.579V93.4631H77.1685V123.463Z" fill="#C0392B"/>
<path fill-rule="evenodd" clip-rule="evenodd" d="M119.407 16.4425C121.394 12.4702 124.208 9.95255 128.18 8.7217C130.277 8.10628 139.216 8.16223 141.533 8.77765C146.665 10.2323 151.299 16.1627 151.41 21.4778C151.465 22.9883 151.023 28.5272 150.472 33.7862C149.644 41.7308 149.644 43.5211 150.196 44.2484C151.961 46.3744 166.528 44.8638 176.129 41.507C181.039 39.8286 182.529 39.7726 184.847 41.2273C186.999 42.514 188.886 44.0596 188.886 47.5109C188.886 50.9621 188.014 55.9286 187.33 57.8437C186.968 58.8542 186.116 60.3054 186.116 60.3054C183.191 66.1239 178.281 70.32 171.163 72.9495L167.245 74.4601L169.342 75.691C170.501 76.4183 173.48 77.5372 175.963 78.2086C179.219 79.0478 180.929 79.887 181.977 80.95C183.743 82.7963 184.35 86.321 183.357 88.7827C182.143 91.7479 174.749 96.3916 168.625 98.014C158.803 100.644 146.885 96.7273 137.45 87.7756L134.857 85.314L131.546 88.2792C122.221 96.8391 110.579 100.532 100.978 98.0141C95.1848 96.5035 87.9016 92.0836 86.467 89.2303C85.1427 86.6007 85.4738 83.4677 87.3498 81.3417C88.674 79.8311 89.8327 79.2157 93.5847 78.2086C96.0677 77.5372 99.1024 76.4183 100.261 75.691L102.358 74.4601L98.4403 72.9495C91.3225 70.32 86.4118 66.1239 83.4874 60.3054C83.4874 60.3054 82.6665 58.8419 82.2735 57.8437C81.0669 54.778 80.9278 50.3515 81.2804 47.5493C81.6329 44.7472 82.6046 42.514 84.7565 41.2273C87.0739 39.7726 88.5637 39.8286 93.4744 41.507C103.075 44.8638 117.642 46.3744 119.407 44.2484C119.959 43.5211 119.959 41.7308 119.131 33.7862C117.862 21.9253 117.918 19.4636 119.407 16.4425ZM142.25 32.8351C143.63 21.0302 143.409 19.072 140.319 17.4495C138.223 16.3306 131.215 16.3865 129.174 17.5055C126.249 19.072 125.973 21.1421 127.353 32.8351C128.732 44.6401 128.401 47.1577 124.925 50.4586C122.442 52.8643 120.345 53.4238 113.779 53.4798C107.324 53.5357 101.089 52.5846 94.0261 50.5146L89.4465 49.1718L89.6672 51.7454C90.4397 60.0257 97.1712 65.2847 109.089 66.9631C110.855 67.2429 112.786 67.8583 113.338 68.4178C115.821 70.6557 113.724 75.8588 108.703 80.0549C106.22 82.1249 98.6058 85.9853 97.0609 85.9853C95.24 85.9853 96.2884 87.2162 99.3783 88.6708C102.082 89.9576 103.185 90.1814 107.489 90.1254C115.214 90.0695 120.401 87.44 128.898 79.3276C131.712 76.6421 134.139 74.7958 134.802 74.7958C135.464 74.7958 137.891 76.6421 140.705 79.3276C149.203 87.44 154.389 90.0695 162.114 90.1254C166.418 90.1814 167.521 89.9576 170.28 88.6708C173.315 87.2162 174.363 85.9853 172.542 85.9853C170.997 85.9853 163.383 82.1249 160.9 80.0549C157.81 77.4813 155.051 73.3412 155.051 71.3271C155.051 68.8654 156.762 67.5226 160.514 67.0191C172.708 65.2288 180.046 59.1864 180.046 50.9621L180.046 49.1718L175.522 50.5146C168.514 52.5846 162.279 53.5357 155.824 53.4798C149.258 53.4238 147.161 52.8643 144.678 50.4586C141.202 47.1577 140.871 44.6401 142.25 32.8351Z" fill="#16A085"/>
<path d="M140.319 17.4495C143.409 19.072 143.63 21.0302 142.25 32.8351C140.871 44.6401 141.202 47.1577 144.678 50.4586C147.161 52.8643 149.258 53.4238 155.824 53.4798C162.279 53.5357 168.514 52.5846 175.522 50.5146L180.046 49.1718L180.046 50.9621C180.046 59.1864 172.708 65.2288 160.514 67.0191C156.762 67.5226 155.051 68.8654 155.051 71.3271C155.051 73.3412 157.81 77.4813 160.9 80.0549C163.383 82.1249 170.997 85.9853 172.542 85.9853C174.363 85.9853 173.315 87.2162 170.28 88.6708C167.521 89.9576 166.418 90.1814 162.114 90.1254C154.389 90.0695 149.203 87.44 140.705 79.3276C137.891 76.6421 135.464 74.7958 134.802 74.7958C134.139 74.7958 131.712 76.6421 128.898 79.3276C120.401 87.44 115.214 90.0695 107.489 90.1254C103.185 90.1814 102.082 89.9576 99.3783 88.6708C96.2884 87.2162 95.24 85.9853 97.0609 85.9853C98.6058 85.9853 106.22 82.1249 108.703 80.0549C113.724 75.8588 115.821 70.6557 113.338 68.4178C112.786 67.8583 110.855 67.2429 109.089 66.9631C97.1712 65.2847 90.4397 60.0257 89.6672 51.7454L89.4465 49.1718L94.0261 50.5146C101.089 52.5846 107.324 53.5357 113.779 53.4798C120.345 53.4238 122.442 52.8643 124.925 50.4586C128.401 47.1577 128.732 44.6401 127.353 32.8351C125.973 21.1421 126.249 19.072 129.174 17.5055C131.215 16.3865 138.223 16.3306 140.319 17.4495Z" fill="#1ABC9C"/>
</g>
<defs>
<clipPath id="clip0_386_482">
<rect width="270" height="270" fill="white"/>
</clipPath>
</defs>
</svg>
